<?xml version="1.0" encoding="UTF-8" standalone="no"?>
<svg width="166px" height="167px" viewBox="0 0 166 167" version="1.1" xmlns="http://www.w3.org/2000/svg" xmlns:xlink="http://www.w3.org/1999/xlink" xmlns:sketch="http://www.bohemiancoding.com/sketch/ns">
    <!-- Generator: Sketch 3.3.3 (12072) - http://www.bohemiancoding.com/sketch -->
    <title>food-network-logo</title>
    <desc>Created with Sketch.</desc>
    <defs></defs>
    <g id="Page-1" stroke="none" stroke-width="1" fill="none" fill-rule="evenodd" sketch:type="MSPage">
        <g id="food-network-logo" sketch:type="MSLayerGroup">
            <path d="M165.949,83.613 C165.949,129.365 128.869,166.444 83.118,166.444 C37.374,166.444 0.299,129.366 0.299,83.613 C0.299,37.858 37.375,0.774 83.118,0.774 C128.869,0.774 165.949,37.858 165.949,83.613" id="path8556" fill="#000000" sketch:type="MSShapeGroup"></path>
            <path d="M28.936,108.553 C30.362,101.745 31.84,86.645 33.734,68.51 L40.167,68.494 L40.616,65.654 L34.087,65.67 C34.68,60.059 35.769,47.951 41.012,45.772 C42.43,48.231 43.791,50.134 46.804,50.19 C48.754,50.234 50.476,49.365 50.509,47.238 C50.577,44.23 45.951,43.005 43.588,42.965 C39.191,42.893 26.706,44.53 23.63,61.341 L22.833,65.671 L17.766,65.695 L17.305,68.551 L22.416,68.567 C20.938,81.732 18.026,108.361 17.234,112.016 C15.476,120.026 14.862,121.949 10.858,124.127 C11.343,124.982 11.835,125.824 12.352,126.665 C19.191,124.574 26.885,118.326 28.936,108.553" id="path8562" fill="#FFFFFF" sketch:type="MSShapeGroup"></path>
            <path d="M64.678,79.544 C64.678,76.179 64.442,68.205 59.519,68.205 C52.242,68.205 51.225,82.2 51.225,87.285 C51.225,90.562 51.465,98.541 56.384,98.541 C63.653,98.541 64.678,84.547 64.678,79.544 M39.89,89.313 C39.89,76.408 48.328,65.23 62.331,65.23 C70.938,65.23 76.013,69.063 76.013,77.426 C76.013,90.331 67.574,101.53 53.572,101.53 C44.969,101.527 39.89,97.691 39.89,89.313" id="path8564" fill="#FFFFFF" sketch:type="MSShapeGroup"></path>
            <path d="M103.771,79.544 C103.771,76.179 103.541,68.205 98.622,68.205 C91.349,68.205 90.323,82.2 90.323,87.285 C90.323,90.562 90.563,98.541 95.482,98.541 C102.764,98.541 103.771,84.547 103.771,79.544 M78.984,89.313 C78.984,76.408 87.423,65.23 101.425,65.23 C110.044,65.23 115.114,69.063 115.114,77.426 C115.114,90.331 106.677,101.53 92.676,101.53 C84.071,101.527 78.984,97.691 78.984,89.313" id="path8566" fill="#FFFFFF" sketch:type="MSShapeGroup"></path>
            <path d="M139.748,85.564 C141.613,80.725 142.254,76.264 143.271,68.986 C142.877,68.83 142.406,68.757 142.021,68.757 C133.411,68.757 129.34,81.265 129.34,88.231 C129.34,89.946 129.734,94.096 132.232,94.096 C135.678,94.096 138.723,88.231 139.748,85.564 M157.65,97.211 C152.724,99.574 146.715,101.522 142.566,101.522 C140.453,101.522 140.531,98.167 140.531,96.75 C140.531,95.106 140.691,92.84 141.077,88.466 L140.917,88.306 C138.104,93.944 132.626,101.522 125.584,101.522 C119.97,101.522 117.613,95.66 117.613,90.805 C117.613,78.528 127.314,65.772 140.843,65.772 L143.656,65.772 C144.76,57.257 144.826,53.657 144.826,51.081 C144.826,50.22 144.826,49.439 143.888,49.439 C143.174,49.439 142.101,49.663 139.345,50.532 L138.657,48.261 C144.2,46.306 150.24,45.061 155.615,44.905 C156.319,44.905 156.559,44.905 156.559,46.078 C156.559,53.271 151.151,90.411 151.151,94.16 C151.151,95.185 151.151,96.515 152.176,96.515 C152.721,96.515 154.531,95.89 156.949,95.035 L157.65,97.211" id="path8568" fill="#FFFFFF" sketch:type="MSShapeGroup"></path>
            <path d="M43.099,116.643 L43.099,107.147 L45.183,107.147 L45.183,108.172 C46.015,107.58 46.978,106.973 48.098,106.973 C49.984,106.973 50.903,108.218 50.903,110.147 L50.903,116.645 L48.64,116.645 L48.64,110.479 C48.64,109.188 48.237,108.794 47.475,108.794 C46.496,108.794 45.74,109.356 45.361,109.795 L45.361,116.643 L43.099,116.643 L43.099,116.643 L43.099,116.643 Z" id="path8570" fill="#FFFFFF" sketch:type="MSShapeGroup"></path>
            <path d="M60.601,110.723 C60.567,109.41 59.868,108.651 58.771,108.651 C57.685,108.651 56.99,109.41 56.945,110.723 L60.601,110.723 L60.601,110.723 Z M56.945,112.264 C56.99,114.231 57.864,115.004 58.927,115.004 C59.978,115.004 60.468,114.518 61.033,113.865 L62.68,114.883 C61.811,116.235 60.528,116.811 58.702,116.811 C56.239,116.811 54.698,114.908 54.698,111.899 C54.698,108.886 56.239,106.973 58.819,106.973 C61.298,106.944 62.679,109.053 62.679,111.329 L62.679,112.264 L56.945,112.264 L56.945,112.264 Z" id="path8572" fill="#FFFFFF" sketch:type="MSShapeGroup"></path>
            <path d="M67.09,107.146 L67.09,104.027 L69.352,104.027 L69.352,107.146 L71.216,107.146 L71.216,108.976 L69.352,108.976 L69.352,114.349 C69.352,114.849 69.618,115.002 70.176,115.002 C70.517,115.002 70.882,114.888 71.216,114.806 L71.216,116.687 C70.591,116.749 70.043,116.818 69.421,116.818 C67.744,116.818 67.09,115.99 67.09,114.624 L67.09,108.977 L65.785,108.977 L65.785,107.147 L67.09,107.147 L67.09,107.146 L67.09,107.146 Z" id="path8574" fill="#FFFFFF" sketch:type="MSShapeGroup"></path>
            <path d="M74.006,107.146 L76.158,107.146 L77.448,113.061 L77.479,113.061 L78.852,107.146 L80.94,107.146 L82.269,113.061 L82.299,113.061 L83.665,107.146 L85.807,107.146 L83.362,116.643 L81.304,116.643 L79.915,110.723 L79.87,110.723 L78.488,116.643 L76.446,116.643 L74.006,107.146 Z" id="polygon8576" fill="#FFFFFF" sketch:type="MSShapeGroup"></path>
            <path d="M92.729,108.794 C91.469,108.794 90.877,109.78 90.877,111.891 C90.877,114.002 91.469,115.002 92.729,115.002 C93.992,115.002 94.59,114.001 94.59,111.891 C94.588,109.78 93.988,108.794 92.729,108.794 M92.729,106.971 C95.311,106.971 96.86,108.893 96.86,111.891 C96.86,114.912 95.311,116.811 92.729,116.811 C90.157,116.811 88.616,114.914 88.616,111.891 C88.615,108.893 90.156,106.971 92.729,106.971" id="path8578" fill="#FFFFFF" sketch:type="MSShapeGroup"></path>
            <path d="M100.502,116.643 L100.502,107.147 L102.574,107.147 L102.574,108.778 L102.611,108.778 C103.158,107.641 103.918,107.004 105.285,106.971 L105.285,109.356 C105.164,109.348 105.025,109.348 104.875,109.348 C103.75,109.348 102.764,110.645 102.764,110.873 L102.764,116.643 L100.502,116.643 L100.502,116.643 L100.502,116.643 Z" id="path8580" fill="#FFFFFF" sketch:type="MSShapeGroup"></path>
            <path d="M108.904,116.643 L108.904,103.473 L111.168,103.473 L111.168,110.813 L111.234,110.813 L114.036,107.146 L116.625,107.146 L113.824,110.691 L116.822,116.643 L114.408,116.643 L112.313,112.391 L111.168,113.713 L111.168,116.643 L108.904,116.643 Z" id="polygon8582" fill="#FFFFFF" sketch:type="MSShapeGroup"></path>
        </g>
    </g>
</svg>