<?xml version="1.0" encoding="UTF-8" standalone="no"?>
<svg width="179px" height="59px" viewBox="0 0 179 59" version="1.1" xmlns="http://www.w3.org/2000/svg" xmlns:xlink="http://www.w3.org/1999/xlink" xmlns:sketch="http://www.bohemiancoding.com/sketch/ns">
    <!-- Generator: Sketch 3.3.3 (12072) - http://www.bohemiancoding.com/sketch -->
    <title>google-logo</title>
    <desc>Created with Sketch.</desc>
    <defs></defs>
    <g id="Page-1" stroke="none" stroke-width="1" fill="none" fill-rule="evenodd" sketch:type="MSPage">
        <g id="google-logo" sketch:type="MSLayerGroup">
            <path d="M23.4,45.9 C10.9,45.9 0.4,35.7 0.4,23.2 C0.4,10.7 10.9,0.5 23.4,0.5 C30.3,0.5 35.3,3.2 39,6.8 L34.6,11.2 C31.9,8.7 28.3,6.8 23.4,6.8 C14.2,6.7 7.1,14 7.1,23.2 C7.1,32.3 14.2,39.7 23.4,39.7 C29.3,39.7 32.7,37.3 34.9,35.2 C36.7,33.4 37.8,30.9 38.3,27.4 L23.5,27.4 L23.5,21.2 L44.2,21.2 C44.4,22.3 44.5,23.6 44.5,25.1 C44.5,29.8 43.2,35.5 39.1,39.6 C35.2,43.7 30.1,45.9 23.4,45.9 L23.4,45.9 Z M76.1,31.3 C76.1,39.7 69.5,45.9 61.4,45.9 C53.3,45.9 46.7,39.7 46.7,31.3 C46.7,22.8 53.3,16.7 61.4,16.7 C69.5,16.6 76.1,22.8 76.1,31.3 L76.1,31.3 Z M69.7,31.3 C69.7,26 65.9,22.4 61.4,22.4 C57,22.4 53.1,26 53.1,31.3 C53.1,36.5 56.9,40.2 61.4,40.2 C65.9,40.1 69.7,36.5 69.7,31.3 L69.7,31.3 Z M108,31.3 C108,39.7 101.4,45.9 93.3,45.9 C85.2,45.9 78.6,39.7 78.6,31.3 C78.6,22.8 85.2,16.7 93.3,16.7 C101.4,16.6 108,22.8 108,31.3 L108,31.3 Z M101.5,31.3 C101.5,26 97.7,22.4 93.2,22.4 C88.8,22.4 84.9,26 84.9,31.3 C84.9,36.5 88.7,40.2 93.2,40.2 C97.7,40.1 101.5,36.5 101.5,31.3 L101.5,31.3 Z M138.5,17.5 L138.5,43.8 C138.5,54.6 132.1,59 124.6,59 C117.5,59 113.2,54.2 111.6,50.4 L117.2,48.1 C118.2,50.5 120.6,53.3 124.6,53.3 C129.4,53.3 132.4,50.3 132.4,44.7 L132.4,42.6 L132.2,42.6 C130.8,44.4 128,45.9 124.5,45.9 C117.2,45.9 110.5,39.5 110.5,31.3 C110.5,23 117.2,16.6 124.5,16.6 C128,16.6 130.8,18.2 132.2,19.9 L132.4,19.9 L132.4,17.5 L138.5,17.5 L138.5,17.5 Z M132.8,31.3 C132.8,26.1 129.4,22.4 125,22.4 C120.6,22.4 116.9,26.2 116.9,31.3 C116.9,36.4 120.6,40.1 125,40.1 C129.4,40.1 132.8,36.4 132.8,31.3 L132.8,31.3 Z M148.8,2.1 L148.8,45 L142.6,45 L142.6,2.1 L148.8,2.1 L148.8,2.1 Z M173.7,36.1 L178.7,39.4 C177.1,41.8 173.2,45.9 166.5,45.9 C158.2,45.9 152,39.5 152,31.3 C152,22.6 158.3,16.7 165.8,16.7 C173.4,16.7 177.1,22.7 178.3,26 L179,27.7 L159.4,35.8 C160.9,38.7 163.2,40.2 166.5,40.2 C169.8,40.2 172,38.5 173.7,36.1 L173.7,36.1 Z M158.4,30.8 L171.5,25.4 C170.8,23.6 168.6,22.3 166.1,22.3 C162.7,22.3 158.2,25.2 158.4,30.8 L158.4,30.8 Z" id="Shape" fill="#000000" sketch:type="MSShapeGroup"></path>
            <path d="M0,0 L180,0 L180,59.5 L0,59.5 L0,0 Z" id="Shape" sketch:type="MSShapeGroup"></path>
        </g>
    </g>
</svg>