<?xml version="1.0" encoding="UTF-8" standalone="no"?>
<svg width="287px" height="150px" viewBox="0 0 287 150" version="1.1" xmlns="http://www.w3.org/2000/svg" xmlns:xlink="http://www.w3.org/1999/xlink" xmlns:sketch="http://www.bohemiancoding.com/sketch/ns">
    <!-- Generator: Sketch 3.3.3 (12072) - http://www.bohemiancoding.com/sketch -->
    <title>Group</title>
    <desc>Created with Sketch.</desc>
    <defs></defs>
    <g id="Page-1" stroke="none" stroke-width="1" fill="none" fill-rule="evenodd" sketch:type="MSPage">
        <g id="Group" sketch:type="MSLayerGroup" transform="translate(0.000000, -1.000000)" fill="#000000">
            <path d="M95.3031628,61.3763413 L3.80000841e-07,0.99999846 L190.341226,0.99999846 L95.3031628,61.3763413 L95.3031628,61.3763413 Z" id="path135642" sketch:type="MSShapeGroup" transform="translate(95.170613, 31.188170) scale(1, -1) translate(-95.170613, -31.188170) "></path>
            <path d="M72.414056,68.0977106 L51.75841,68.0977106 L51.75841,101.533347 L20.940628,101.533347 L20.940628,68.0977106 L0.28498202,68.0977106 L0.28498202,148.533226 L20.940628,148.533226 L20.940628,119.692642 L51.75841,119.692642 L51.75841,148.533226 L72.414056,148.533226 L72.414056,68.0977106 L72.414056,68.0977106 Z" id="path135646" sketch:type="MSShapeGroup" transform="translate(36.349519, 108.315468) scale(1, -1) translate(-36.349519, -108.315468) "></path>
            <path d="M118.834031,66.1315582 C92.6775761,66.1315582 74.4188687,83.4734642 74.4188687,108.315468 C74.4188687,133.157473 92.6775761,150.499379 118.834031,150.499379 C132.950563,150.499379 143.95218,147.019952 151.529599,140.149464 L152.678362,139.100113 L138.142089,123.647039 L136.971234,124.839985 C132.276769,129.633862 126.853281,131.688381 118.834031,131.688381 C105.026781,131.688381 95.7483085,122.299451 95.7483085,108.315468 C95.7483085,94.3425314 105.026781,84.9425556 118.834031,84.9425556 C125.881251,84.9425556 130.962319,86.79825 133.734815,88.1568834 L133.734815,98.2527446 L119.496779,98.2527446 L119.496779,117.063742 L153.716667,117.063742 L153.716667,74.1618548 L152.877186,73.7310686 C142.947012,68.6941838 131.492517,66.1315582 118.834031,66.1315582" id="path135650" sketch:type="MSShapeGroup" transform="translate(114.067768, 108.315468) scale(1, -1) translate(-114.067768, -108.315468) "></path>
            <path d="M252.41174,68.0974744 L236.26278,68.0974744 L210.713845,130.373695 L196.652542,130.373695 L196.652542,68.0974744 L175.996896,68.0974744 L175.996896,130.373695 L153.34196,130.373695 L153.34196,148.53299 L226.652934,148.53299 L245.309291,100.35121 L264.285975,148.53299 L286.465941,148.53299 L252.41174,68.0974744 L252.41174,68.0974744 Z" id="path135654" sketch:type="MSShapeGroup" transform="translate(219.903951, 108.315232) scale(1, -1) translate(-219.903951, -108.315232) "></path>
        </g>
    </g>
</svg>